<?xml version="1.0" encoding="UTF-8"?>
<svg version="1.1" xmlns="http://www.w3.org/2000/svg" width="1000" height="1000">
<path d="M0 0 C119.79 0 239.58 0 363 0 C363 27.06 363 54.12 363 82 C278.85 82 194.7 82 108 82 C108 139.42 108 196.84 108 256 C177.3 256 246.6 256 318 256 C315.46463987 283.88896146 309.60382398 311.37705615 305 339 C239.99 339 174.98 339 108 339 C108 428.43 108 517.86 108 610 C72.36 610 36.72 610 0 610 C0 408.7 0 207.4 0 0 Z " fill="#A3D2B0" transform="translate(343,226)"/>
<path d="M0 0 C1.84419742 -0.03661501 3.68813107 -0.09114216 5.53125 -0.1640625 C20.73925635 -0.75681282 20.73925635 -0.75681282 24.98144531 2.28149414 C26.59188188 4.64956968 27.58385202 6.89344418 28.59155273 9.56982422 C29.46292206 11.14517382 30.35510176 12.70918561 31.26733398 14.26123047 C32.15019633 15.88278071 33.0290035 17.50654442 33.90405273 19.13232422 C34.85777699 20.88661275 35.81221462 22.64051361 36.76733398 24.39404297 C37.23864746 25.26077637 37.70996094 26.12750977 38.19555664 27.02050781 C40.64630662 31.49597673 43.16281209 35.93425454 45.68652344 40.36889648 C47.77189946 44.04981501 49.73220064 47.76977337 51.59155273 51.56982422 C53.80257517 47.80056172 56.00986135 44.02912367 58.21655273 40.25732422 C58.83401367 39.20480469 59.45147461 38.15228516 60.08764648 37.06787109 C65.97305548 27.00072414 71.52120876 16.76977926 76.95288086 6.45263672 C79.48308776 1.67828919 79.48308776 1.67828919 80.59155273 0.56982422 C83.54860594 0.48114123 86.4822033 0.45462126 89.43920898 0.47216797 C90.76884926 0.47429039 90.76884926 0.47429039 92.12535095 0.47645569 C94.96828528 0.48207206 97.81114205 0.49462731 100.65405273 0.50732422 C102.57657764 0.51233711 104.49910378 0.51690038 106.42163086 0.52099609 C111.14496823 0.53204681 115.86824731 0.54932239 120.59155273 0.56982422 C120.59155273 3.82385422 120.11792061 4.76384496 118.52905273 7.50732422 C118.07046875 8.30541504 117.61188477 9.10350586 117.1394043 9.92578125 C116.62861328 10.79831543 116.11782227 11.67084961 115.59155273 12.56982422 C115.05755859 13.49263184 114.52356445 14.41543945 113.97338867 15.36621094 C110.29285774 21.70677151 106.56708965 28.02098011 102.83251953 34.32983398 C101.49927875 36.58318257 100.17004557 38.83890691 98.84472656 41.09692383 C95.66467677 46.49310546 92.44685079 51.84201138 89.03384399 57.09460449 C87.4684225 59.51080983 85.93259196 61.94515753 84.39880371 64.38153076 C83.65957369 65.53735836 82.90591152 66.68409687 82.1373291 67.82061768 C79.79866248 71.28306418 77.77590608 74.54771673 76.59155273 78.56982422 C77.36336898 82.54862017 79.25515806 85.3102071 81.59155273 88.56982422 C82.4405818 90.00769343 83.27944014 91.45162491 84.10717773 92.90185547 C85.01541163 94.39730812 85.92703744 95.89070456 86.84155273 97.38232422 C92.07054885 106.00142912 97.19196172 114.67910826 102.27905273 123.38232422 C109.01750735 134.90760222 109.01750735 134.90760222 115.84155273 146.38232422 C116.50541992 147.48962891 117.16928711 148.59693359 117.85327148 149.73779297 C119.40259446 152.26197085 121.0166892 154.72750231 122.65405273 157.19482422 C124.62231658 160.62341286 124.79118208 161.79618567 124.59155273 165.56982422 C119.07397795 165.59450031 113.55643512 165.61267278 108.03881836 165.62475586 C106.16088298 165.62979185 104.28295154 165.63662092 102.4050293 165.64526367 C99.70938141 165.65736135 97.01378526 165.66305979 94.31811523 165.66748047 C93.47536041 165.67264175 92.63260559 165.67780304 91.76431274 165.68312073 C85.81929615 165.68369593 85.81929615 165.68369593 83.59155273 164.56982422 C82.62310863 162.99350538 81.72413604 161.37419335 80.86108398 159.73779297 C80.32950684 158.73925293 79.79792969 157.74071289 79.25024414 156.71191406 C78.70287598 155.67502441 78.15550781 154.63813477 77.59155273 153.56982422 C76.5557365 151.64820205 75.51799339 149.72761722 74.47827148 147.80810547 C73.95668457 146.84171143 73.43509766 145.87531738 72.89770508 144.87963867 C63.71997867 127.62731335 63.71997867 127.62731335 53.84936523 110.76904297 C52.59155273 108.56982422 52.59155273 108.56982422 52.59155273 106.56982422 C51.93155273 106.56982422 51.27155273 106.56982422 50.59155273 106.56982422 C50.32858398 107.44251953 50.06561523 108.31521484 49.79467773 109.21435547 C48.60478662 112.53291543 47.1647459 115.24741298 45.34155273 118.25732422 C41.16080812 125.27684604 37.23522527 132.40510338 33.46264648 139.65185547 C22.50263206 160.65874489 22.50263206 160.65874489 17.59155273 165.56982422 C14.72266692 165.74514711 11.95162628 165.80120036 9.08374023 165.76513672 C8.24312042 165.76230682 7.40250061 165.75947693 6.53640747 165.75656128 C3.84631227 165.74534852 1.15654763 165.72024225 -1.53344727 165.69482422 C-3.35505705 165.68479582 -5.17667204 165.67566973 -6.99829102 165.66748047 C-11.46847085 165.64540563 -15.93840298 165.61086856 -20.40844727 165.56982422 C-21.10620117 163.94238281 -21.10620117 163.94238281 -21.40844727 161.56982422 C-20.16772461 158.80273438 -20.16772461 158.80273438 -18.24438477 155.60888672 C-17.90086472 155.03042496 -17.55734467 154.4519632 -17.20341492 153.85597229 C-16.07493001 151.96176638 -14.92940104 150.07850373 -13.78344727 148.19482422 C-12.99767831 146.88343886 -12.21310068 145.57133897 -11.4296875 144.25854492 C-9.84719654 141.60990465 -8.25853441 138.96512829 -6.66479492 136.32324219 C-4.09785586 132.0625214 -1.58144896 127.77279621 0.93261719 123.48071289 C5.58142117 115.55023293 10.3424995 107.70589313 15.25927734 99.93896484 C18.18290199 95.29624161 20.87727884 90.56232669 23.43530273 85.70654297 C24.59155273 83.56982422 24.59155273 83.56982422 26.59155273 80.56982422 C26.21286772 77.54034408 24.96934923 75.19723001 23.46655273 72.56982422 C22.78206055 71.3690625 22.78206055 71.3690625 22.08374023 70.14404297 C21.59131836 69.29455078 21.09889648 68.44505859 20.59155273 67.56982422 C20.11975586 66.75126953 19.64795898 65.93271484 19.16186523 65.08935547 C15.36290205 58.54039655 11.5043188 52.02620091 7.65405273 45.50732422 C6.83940552 44.12746338 6.83940552 44.12746338 6.00830078 42.71972656 C3.13935914 37.86472033 0.2627225 33.01449067 -2.62950134 28.17332458 C-4.09461831 25.72036988 -5.55713558 23.26586943 -7.01956177 20.81130981 C-7.73233065 19.61673334 -8.44640452 18.42293447 -9.16183472 17.22994995 C-10.16786131 15.55221686 -11.16910212 13.8716169 -12.17016602 12.19091797 C-12.74726318 11.22597412 -13.32436035 10.26103027 -13.91894531 9.2668457 C-15.3095428 6.74890922 -16.40857826 4.26338011 -17.40844727 1.56982422 C-14.47471142 -1.36391163 -4.13649676 0.06389263 0 0 Z " fill="#A3D2B0" transform="translate(601.408447265625,691.43017578125)"/>
</svg>
